HIERARCHY
ROOT hip
{
  OFFSET 0 0 0
  CHANNELS 6 Xposition Yposition Zposition Zrotation Yrotation Xrotation
  JOINT abdomen
  {
    OFFSET 0 20.6881 -0.73152
    CHANNELS 3 Zrotation Xrotation Yrotation
    JOINT chest
    {
      OFFSET 0 11.7043 -0.48768
      CHANNELS 3 Zrotation Xrotation Yrotation
      JOINT neck
      {
        OFFSET 0 22.1894 -2.19456
        CHANNELS 3 Zrotation Xrotation Yrotation
        JOINT head
        {
          OFFSET -0.24384 7.07133 1.2192
          CHANNELS 3 Zrotation Xrotation Yrotation
          JOINT leftEye
          {
            OFFSET 4.14528 8.04674 8.04672
            CHANNELS 3 Zrotation Xrotation Yrotation
            End Site
            {
              OFFSET 1 0 0
            }
          }
          JOINT rightEye
          {
            OFFSET -3.6576 8.04674 8.04672
            CHANNELS 3 Zrotation Xrotation Yrotation
            End Site
            {
              OFFSET 1 0 0
            }
          }
        }
      }
      JOINT rCollar
      {
        OFFSET -2.68224 19.2634 -4.8768
        CHANNELS 3 Zrotation Xrotation Yrotation
        JOINT rShldr
        {
          OFFSET -8.77824 -1.95073 1.46304
          CHANNELS 3 Zrotation Xrotation Yrotation
          JOINT rForeArm
          {
            OFFSET -28.1742 -1.7115 0.48768
            CHANNELS 3 Zrotation Xrotation Yrotation
            JOINT rHand
            {
              OFFSET -22.5879 0.773209 7.07136
              CHANNELS 3 Zrotation Xrotation Yrotation
              JOINT rThumb1
              {
                OFFSET -1.2192 -0.487915 3.41376
                CHANNELS 3 Zrotation Xrotation Yrotation
                JOINT rThumb2
                {
                  OFFSET -3.37035 -0.52449 3.41376
                  CHANNELS 3 Zrotation Xrotation Yrotation
                  End Site
                  {
                    OFFSET -1.78271 -1.18214 1.43049
                  }
                }
              }
              JOINT rIndex1
              {
                OFFSET -7.75947 0.938293 5.60832
                CHANNELS 3 Zrotation Xrotation Yrotation
                JOINT rIndex2
                {
                  OFFSET -2.54057 -0.884171 1.56538
                  CHANNELS 3 Zrotation Xrotation Yrotation
                  End Site
                  {
                    OFFSET -1.62519 -0.234802 1.16502
                  }
                }
              }
              JOINT rMid1
              {
                OFFSET -8.24714 1.18213 3.41376
                CHANNELS 3 Zrotation Xrotation Yrotation
                JOINT rMid2
                {
                  OFFSET -3.10165 -0.590103 1.0647
                  CHANNELS 3 Zrotation Xrotation Yrotation
                  End Site
                  {
                    OFFSET -2.48547 -0.328903 0.83742
                  }
                }
              }
              JOINT rRing1
              {
                OFFSET -8.82822 0.546677 1.51678
                CHANNELS 3 Zrotation Xrotation Yrotation
                JOINT rRing2
                {
                  OFFSET -2.60934 -0.819778 -0.0198488
                  CHANNELS 3 Zrotation Xrotation Yrotation
                  End Site
                  {
                    OFFSET -2.33842 -0.294052 0.168128
                  }
                }
              }
              JOINT rPinky1
              {
                OFFSET -8.27202 -0.0477905 -0.4584
                CHANNELS 3 Zrotation Xrotation Yrotation
                JOINT rPinky2
                {
                  OFFSET -1.82734 -0.647385 -0.700984
                  CHANNELS 3 Zrotation Xrotation Yrotation
                  End Site
                  {
                    OFFSET -1.69225 -0.51767 -0.607171
                  }
                }
              }
            }
          }
        }
      }
      JOINT lCollar
      {
        OFFSET 2.68224 19.2634 -4.8768
        CHANNELS 3 Zrotation Xrotation Yrotation
        JOINT lShldr
        {
          OFFSET 8.77824 -1.95073 1.46304
          CHANNELS 3 Zrotation Xrotation Yrotation
          JOINT lForeArm
          {
            OFFSET 28.1742 -1.7115 0.48768
            CHANNELS 3 Zrotation Xrotation Yrotation
            JOINT lHand
            {
              OFFSET 22.5879 0.773209 7.07136
              CHANNELS 3 Zrotation Xrotation Yrotation
              JOINT lThumb1
              {
                OFFSET 1.2192 -0.487915 3.41376
                CHANNELS 3 Zrotation Xrotation Yrotation
                JOINT lThumb2
                {
                  OFFSET 3.37035 -0.52449 3.41376
                  CHANNELS 3 Zrotation Xrotation Yrotation
                  End Site
                  {
                    OFFSET 1.78271 -1.18214 1.43049
                  }
                }
              }
              JOINT lIndex1
              {
                OFFSET 7.75947 0.938293 5.60832
                CHANNELS 3 Zrotation Xrotation Yrotation
                JOINT lIndex2
                {
                  OFFSET 2.54057 -0.884171 1.56538
                  CHANNELS 3 Zrotation Xrotation Yrotation
                  End Site
                  {
                    OFFSET 1.62519 -0.234802 1.16502
                  }
                }
              }
              JOINT lMid1
              {
                OFFSET 8.24714 1.18213 3.41376
                CHANNELS 3 Zrotation Xrotation Yrotation
                JOINT lMid2
                {
                  OFFSET 3.10165 -0.590103 1.0647
                  CHANNELS 3 Zrotation Xrotation Yrotation
                  End Site
                  {
                    OFFSET 2.48547 -0.328903 0.83742
                  }
                }
              }
              JOINT lRing1
              {
                OFFSET 8.82822 0.546677 1.51678
                CHANNELS 3 Zrotation Xrotation Yrotation
                JOINT lRing2
                {
                  OFFSET 2.60934 -0.819778 -0.0198488
                  CHANNELS 3 Zrotation Xrotation Yrotation
                  End Site
                  {
                    OFFSET 2.33842 -0.294052 0.168128
                  }
                }
              }
              JOINT lPinky1
              {
                OFFSET 8.27202 -0.0477905 -0.4584
                CHANNELS 3 Zrotation Xrotation Yrotation
                JOINT lPinky2
                {
                  OFFSET 1.82734 -0.647385 -0.700984
                  CHANNELS 3 Zrotation Xrotation Yrotation
                  End Site
                  {
                    OFFSET 1.69225 -0.51767 -0.607171
                  }
                }
              }
            }
          }
        }
      }
    }
  }
  JOINT rButtock
  {
    OFFSET -8.77824 4.35084 1.2192
    CHANNELS 3 Zrotation Xrotation Yrotation
    JOINT rThigh
    {
      OFFSET 0 -1.70687 -2.19456
      CHANNELS 3 Zrotation Xrotation Yrotation
      JOINT rShin
      {
        OFFSET 0 -36.8199 0.73152
        CHANNELS 3 Zrotation Xrotation Yrotation
        JOINT rFoot
        {
          OFFSET 0.73152 -45.1104 -5.12064
          CHANNELS 3 Zrotation Xrotation Yrotation
          End Site
          {
            OFFSET -1.1221 -3.69964 12.103
          }
        }
      }
    }
  }
  JOINT lButtock
  {
    OFFSET 8.77824 4.35084 1.2192
    CHANNELS 3 Zrotation Xrotation Yrotation
    JOINT lThigh
    {
      OFFSET 0 -1.70687 -2.19456
      CHANNELS 3 Zrotation Xrotation Yrotation
      JOINT lShin
      {
        OFFSET 0 -36.8199 0.73152
        CHANNELS 3 Zrotation Xrotation Yrotation
        JOINT lFoot
        {
          OFFSET -0.73152 -45.1104 -5.12064
          CHANNELS 3 Zrotation Xrotation Yrotation
          End Site
          {
            OFFSET 1.1221 -3.69964 12.103
          }
        }
      }
    }
  }
}
MOTION
Frames:	4
Frame Time:	0.03333
-0.7359000024636592 71.21879911726232 1.7015000137667877 59.02300262451172 83.27360534667969 67.54801940917969 -4.617709159851074 20.495004653930664 2.4723801612854004 -1.2871999740600586 -12.212599754333496 0.5214091539382935 -1.3254199028015137 9.363009452819824 4.6511993408203125 -5.135210037231445 -24.611799240112305 8.413548469543457 -0.0 0.0 -0.0 -0.0 0.0 -0.0 3.900139759760446e-13 3.2471701109232365e-12 1.2568198977207234e-13 -6.278069496154785 16.444299697875977 52.375 -27.70570182800293 -29.077604293823242 65.77880096435547 -0.07261049747467041 7.665310859680176 1.0838298797607422 -2.3196400356084723e-09 3.795590064470389e-09 -1.363869905901538e-09 -4.0135699208576625e-09 6.574460087449552e-09 -2.346379979201174e-09 -2.3196400356084723e-09 3.795590064470389e-09 -1.3638798979087596e-09 7.730909824371338 5.474879741668701 0.4173140823841095 -2.3196400356084723e-09 3.795590064470389e-09 -1.363869905901538e-09 2.9055399894714355 0.9651829600334167 0.10290199518203735 -2.3196400356084723e-09 3.795590064470389e-09 -1.3638600249166188e-09 10.27859878540039 0.73180091381073 0.025912316516041756 -2.319650027615694e-09 3.795590064470389e-09 -1.3638600249166188e-09 2.221669912338257 -0.733487069606781 -0.208919957280159 3.89992996664007e-13 3.2471701109232365e-12 1.2553299328851852e-13 1.0458201169967651 36.24399948120117 -92.29959869384766 27.703197479248047 -41.75779724121094 -87.13369750976562 1.6260799169540405 -33.66550064086914 5.37114953994751 1.194240040192085e-09 -6.2550897794722005e-09 2.151239852921094e-09 2.009910016198546e-09 -1.0805299766047938e-08 3.739510034961313e-09 1.194240040192085e-09 -6.2550897794722005e-09 2.1512498449283157e-09 -7.730909824371338 5.474879741668701 -0.4173140823841095 1.194240040192085e-09 -6.2550897794722005e-09 2.1512498449283157e-09 -2.9055399894714355 0.9651829600334167 -0.10290199518203735 1.1942299371625609e-09 -6.2550897794722005e-09 2.151239852921094e-09 -10.27859878540039 0.73180091381073 -0.025912316516041756 1.194240040192085e-09 -6.2550897794722005e-09 2.1512298609138725e-09 -2.221669912338257 -0.733487069606781 0.208919957280159 -2.0321699480147914e-16 0.0 -3.8825099822884138e-19 -14.270899772644043 -60.42160415649414 -2.07943058013916 -1.7559400796890259 66.30470275878906 1.615919828414917 -3.785630464553833 -15.98189926147461 -5.479920864105225 2.0321699480147914e-16 0.0 3.8825099822884138e-19 21.46919822692871 -40.60320281982422 -7.595789909362793 0.12040998786687851 34.40779495239258 -0.7335909605026245 -0.16969500482082367 7.8017802238464355 7.671949863433838
-1.2029999912147293 71.41179977263937 3.341700040228063 129.39097595214844 83.03224182128906 137.74801635742188 -3.884589910507202 20.91969871520996 2.301029920578003 -0.8561310172080994 -12.31209945678711 0.5532819628715515 -0.5276980400085449 9.77207088470459 5.207210540771484 -6.606760025024414 -24.572603225708008 9.13364028930664 -0.0 0.0 -0.0 -0.0 0.0 -0.0 5.771959651771144e-14 9.33155028942645e-13 2.719779967647745e-13 -6.085119724273682 21.733699798583984 50.55309295654297 -27.97930335998535 -30.485401153564453 68.01029205322266 0.0023482597898691893 3.1409101486206055 0.4403649866580963 -1.336339927604513e-10 -2.2462298687742077e-09 -1.3756199512826583e-09 -2.3201499055325314e-10 -3.8803498192407915e-09 -2.3713699892624618e-09 -1.336339927604513e-10 -2.246220098811591e-09 -1.3756298322675775e-09 7.730909824371338 5.474879741668701 0.4173140823841095 -1.3363599116189562e-10 -2.2462298687742077e-09 -1.3756199512826583e-09 2.9055399894714355 0.9651829600334167 0.10290199518203735 -1.3362799755611832e-10 -2.2462298687742077e-09 -1.3756199512826583e-09 10.27859878540039 0.73180091381073 0.025912316516041756 -1.3364098716550643e-10 -2.2462298687742077e-09 -1.3756099592754367e-09 2.221669912338257 -0.733487069606781 -0.208919957280159 5.770969639662393e-14 9.331619678365488e-13 2.7184098071522667e-13 5.171960353851318 31.7793025970459 -100.7439956665039 27.52889633178711 -42.40079879760742 -88.34779357910156 1.6584198474884033 -33.93539810180664 5.427260398864746 1.99041005899403e-09 -6.155210119374033e-09 1.8111399047171517e-09 3.3902001206342902e-09 -1.0681000084389325e-08 3.178849850016263e-09 1.9904000669868083e-09 -6.155210119374033e-09 1.8111498967243733e-09 -7.730909824371338 5.474879741668701 -0.4173140823841095 1.99041005899403e-09 -6.155210119374033e-09 1.8111498967243733e-09 -2.9055399894714355 0.9651829600334167 -0.10290199518203735 1.9904000669868083e-09 -6.155210119374033e-09 1.8111399047171517e-09 -10.27859878540039 0.73180091381073 -0.025912316516041756 1.99041005899403e-09 -6.155210119374033e-09 1.8111300237322325e-09 -2.221669912338257 -0.733487069606781 0.208919957280159 -2.0321699480147914e-16 0.0 -3.8825099822884138e-19 -9.40307903289795 -58.765804290771484 3.6585495471954346 -1.726309895515442 66.28170013427734 1.6826999187469482 -4.029390335083008 -16.634002685546875 -6.473940372467041 2.0321699480147914e-16 0.0 3.8825099822884138e-19 19.002500534057617 -47.69389343261719 -4.370971202850342 0.2540609836578369 39.41669845581055 -0.7152310013771057 0.2532300353050232 6.039760112762451 3.953810214996338
-1.4280000028120101 71.47540249419053 5.009100014398444 157.344970703125 76.6578140258789 165.40699768066406 -3.0808498859405518 21.284299850463867 2.3020594120025635 -0.578402042388916 -12.445499420166016 0.6151769757270813 0.36410197615623474 10.237700462341309 5.7410993576049805 -8.058140754699707 -24.5553035736084 9.809128761291504 -0.0 0.0 -0.0 -0.0 0.0 -0.0 -2.209949888018481e-13 -1.6008898850658482e-12 2.7993899516173815e-13 -5.448110103607178 27.272296905517578 48.727298736572266 -28.19500160217285 -31.939603805541992 70.3563003540039 -0.004924079868942499 -2.0032098293304443 -0.2816479802131653 1.7591699208452383e-09 -6.089559967392688e-09 -8.50343961911193e-10 3.03954994507194e-09 -1.0524900062591769e-08 -1.4683899651757315e-09 1.7591699208452383e-09 -6.089539983378245e-09 -8.503589499220254e-10 7.730909824371338 5.474879741668701 0.4173140823841095 1.7591699208452383e-09 -6.089559967392688e-09 -8.50349957115526e-10 2.9055399894714355 0.9651829600334167 0.10290199518203735 1.7591799128524599e-09 -6.089559967392688e-09 -8.503480142252329e-10 10.27859878540039 0.73180091381073 0.025912316516041756 1.7591699208452383e-09 -6.089559967392688e-09 -8.503369675061379e-10 2.221669912338257 -0.733487069606781 -0.208919957280159 -2.2101699810594955e-13 -1.6008800188260786e-12 2.797889957911748e-13 8.221659660339355 27.26409912109375 -107.77399444580078 27.305599212646484 -43.138702392578125 -89.75629425048828 1.6738899946212769 -34.08429718017578 5.4569196701049805 2.108299979042272e-09 -4.337999737202836e-09 9.863500016749072e-10 3.6122298485707915e-09 -7.569589399736287e-09 1.7632401094758166e-09 2.1082897649904453e-09 -4.338009507165452e-09 9.863599936821288e-10 -7.730909824371338 5.474879741668701 -0.4173140823841095 2.108299979042272e-09 -4.338009507165452e-09 9.863539984777958e-10 -2.9055399894714355 0.9651829600334167 -0.10290199518203735 2.1082897649904453e-09 -4.338009507165452e-09 9.863520000763515e-10 -10.27859878540039 0.73180091381073 -0.025912316516041756 2.108299979042272e-09 -4.337999737202836e-09 9.863440064705742e-10 -2.221669912338257 -0.733487069606781 0.208919957280159 -2.0321699480147914e-16 0.0 -3.8825099822884138e-19 -5.089339733123779 -56.97929763793945 8.485459327697754 -1.7068798542022705 66.42869567871094 1.7931698560714722 -4.291709899902344 -17.2677001953125 -7.499370098114014 2.0321699480147914e-16 0.0 3.8825099822884138e-19 16.41139793395996 -53.80359649658203 -0.708034873008728 0.4226889908313751 45.22621154785156 -0.7761660814285278 0.4490419626235962 4.131099700927734 2.578199625015259
-1.4923000039681051 71.49510075975685 6.700599990890099 167.69102478027344 69.48180389404297 175.3040008544922 -1.5230697393417358 21.524202346801758 2.255459785461426 -0.6970829963684082 -12.630499839782715 0.6513429284095764 1.0952200889587402 10.500301361083984 6.41718053817749 -8.818089485168457 -24.242799758911133 10.954999923706055 -0.0 0.0 -0.0 -0.0 0.0 -0.0 6.447950219546847e-14 -5.906769756473806e-13 -1.2225900088320973e-13 -4.2592902183532715 32.79069900512695 47.07460021972656 -28.350399017333984 -33.440303802490234 72.76709747314453 -0.0495326928794384 -6.167219638824463 -0.8700299263000488 1.6184699414001358e-10 6.192149459849361e-09 1.6078000042440976e-09 2.6337299008361015e-10 1.0787600146500154e-08 2.773979934644899e-09 1.6184599493929142e-10 6.1921596739011875e-09 1.607790012236876e-09 7.730909824371338 5.474879741668701 0.4173140823841095 1.618440104156349e-10 6.192149459849361e-09 1.6078000042440976e-09 2.9055399894714355 0.9651829600334167 0.10290199518203735 1.6185500162357869e-10 6.192149459849361e-09 1.6078000042440976e-09 10.27859878540039 0.73180091381073 0.025912316516041756 1.6184198425861496e-10 6.192149459849361e-09 1.6078101072736217e-09 2.221669912338257 -0.733487069606781 -0.208919957280159 6.44582992667328e-14 -5.906800114134636e-13 -1.2247599039550555e-13 10.668000221252441 23.714702606201172 -113.45599365234375 27.011499404907227 -43.97780227661133 -91.40789794921875 1.5175299644470215 -32.671504974365234 5.17120885848999 1.223299933572619e-10 2.1106100200896094e-10 -4.3960299289658167e-10 2.1711898945397934e-10 3.5181799140637793e-10 -7.520099543079084e-10 1.223219858736968e-10 2.1105199532467367e-10 -4.395940000900822e-10 -7.730909824371338 5.474879741668701 -0.4173140823841095 1.2232899415653975e-10 2.110540076039058e-10 -4.396069896994703e-10 -2.9055399894714355 0.9651829600334167 -0.10290199518203735 1.2232399815292894e-10 2.1105199532467367e-10 -4.3960099449513734e-10 -10.27859878540039 0.73180091381073 -0.025912316516041756 1.2233700164010486e-10 2.110570052060723e-10 -4.3960901585649026e-10 -2.221669912338257 -0.733487069606781 0.208919957280159 -2.0321699480147914e-16 0.0 -3.8825099822884138e-19 -0.9945109486579895 -55.11770248413086 11.935101509094238 -1.6725300550460815 66.51141357421875 1.9085700511932373 -4.502840042114258 -18.12769889831543 -8.234320640563965 2.0321699480147914e-16 0.0 3.8825099822884138e-19 13.04949951171875 -58.40790557861328 0.8273954391479492 0.6524689793586731 51.4846076965332 -0.9349579811096191 0.688386082649231 3.0862998962402344 5.460350036621094
